<svg  fill="none" xmlns="http://www.w3.org/2000/svg">
<g clip-path="url(#clip0_51_187)">
<rect width="2566" height="2566" fill="white"/>
<path d="M32 -56V2566" stroke="#838383"/>
<path d="M72 -56V2566" stroke="#838383"/>
<path d="M112 -56V2566" stroke="#838383"/>
<path d="M152 -56V2566" stroke="#838383"/>
<path d="M192 -56V2566" stroke="#838383"/>
<path d="M232 -56V2566" stroke="#838383"/>
<path d="M272 -56V2566" stroke="#838383"/>
<path d="M312 -56V2566" stroke="#838383"/>
<path d="M352 -56V2566" stroke="#838383"/>
<path d="M392 -56V2566" stroke="#838383"/>
<path d="M432 -56V2566" stroke="#838383"/>
<path d="M472 -56V2566" stroke="#838383"/>
<path d="M512 -56V2566" stroke="#838383"/>
<path d="M552 -56V2566" stroke="#838383"/>
<path d="M592 -56V2566" stroke="#838383"/>
<path d="M632 -56V2566" stroke="#838383"/>
<path d="M672 -56V2566" stroke="#838383"/>
<path d="M712 -56V2566" stroke="#838383"/>
<path d="M752 -56V2566" stroke="#838383"/>
<path d="M792 -56V2566" stroke="#838383"/>
<path d="M832 -56V2566" stroke="#838383"/>
<path d="M872 -56V2566" stroke="#838383"/>
<path d="M909 -55V2566" stroke="#838383"/>
<path d="M952 -56V2566" stroke="#838383"/>
<path d="M992 -56V2566" stroke="#838383"/>
<path d="M1032 -56V2566" stroke="#838383"/>
<path d="M1072 -56V2566" stroke="#838383"/>
<path d="M1112 -56V2566" stroke="#838383"/>
<path d="M1152 -56V2566" stroke="#838383"/>
<path d="M1192 -56V2566" stroke="#838383"/>
<path d="M1232 -56V2566" stroke="#838383"/>
<path d="M1272 -56V2566" stroke="#838383"/>
<path d="M1312 -56V2566" stroke="#838383"/>
<path d="M1352 -56V2566" stroke="#838383"/>
<path d="M1392 -56V2566" stroke="#838383"/>
<path d="M1432 -56V2566" stroke="#838383"/>
<path d="M1472 -56V2566" stroke="#838383"/>
<path d="M1512 -56V2566" stroke="#838383"/>
<path d="M1552 -56V2566" stroke="#838383"/>
<path d="M1592 -56V2566" stroke="#838383"/>
<path d="M1632 -56V2566" stroke="#838383"/>
<path d="M1672 -56V2566" stroke="#838383"/>
<path d="M1712 -56V2566" stroke="#838383"/>
<path d="M1752 -56V2566" stroke="#838383"/>
<path d="M1792 -56V2566" stroke="#838383"/>
<path d="M1832 -56V2566" stroke="#838383"/>
<path d="M1872 -56V2566" stroke="#838383"/>
<path d="M1912 -56V2566" stroke="#838383"/>
<path d="M1952 -56V2566" stroke="#838383"/>
<path d="M1992 -56V2566" stroke="#838383"/>
<path d="M2032 -56V2566" stroke="#838383"/>
<path d="M2072 -56V2566" stroke="#838383"/>
<path d="M2112 -56V2566" stroke="#838383"/>
<path d="M2152 -56V2566" stroke="#838383"/>
<path d="M2192 -56V2566" stroke="#838383"/>
<path d="M2232 -56V2566" stroke="#838383"/>
<path d="M2272 -56V2566" stroke="#838383"/>
<path d="M2312 -56V2566" stroke="#838383"/>
<path d="M2352 -56V2566" stroke="#838383"/>
<path d="M2392 -56V2566" stroke="#838383"/>
<path d="M2432 -56V2566" stroke="#838383"/>
<path d="M2472 -56V2566" stroke="#838383"/>
<path d="M2512 -56V2566" stroke="#838383"/>
<path d="M2552 -56V2566" stroke="#838383"/>
<path d="M-37 5L2618 5" stroke="#838383"/>
<path d="M-37 45L2618 45" stroke="#838383"/>
<path d="M-37 85L2618 85" stroke="#838383"/>
<path d="M-37 125L2618 125" stroke="#838383"/>
<path d="M-37 165L2618 165" stroke="#838383"/>
<path d="M-37 205L2618 205" stroke="#838383"/>
<path d="M-38 245L2618 245" stroke="#838383"/>
<path d="M-37 285L2618 285" stroke="#838383"/>
<path d="M-37 325L2618 325" stroke="#838383"/>
<path d="M-39 365L2618 365" stroke="#838383"/>
<path d="M-37 405L2618 405" stroke="#838383"/>
<path d="M-37 445L2618 445" stroke="#838383"/>
<path d="M-39 485L2618 485" stroke="#838383"/>
<path d="M-37 525L2618 525" stroke="#838383"/>
<path d="M-37 565L2618 565" stroke="#838383"/>
<path d="M-37 605L2618 605" stroke="#838383"/>
<path d="M-37 645L2618 645" stroke="#838383"/>
<path d="M-37 685L2618 685" stroke="#838383"/>
<path d="M-37 725L2618 725" stroke="#838383"/>
<path d="M-38 765L2618 765" stroke="#838383"/>
<path d="M-37 805L2618 805" stroke="#838383"/>
<path d="M-37 845L2618 845" stroke="#838383"/>
<path d="M-39 885L2618 885" stroke="#838383"/>
<path d="M-37 925L2618 925" stroke="#838383"/>
<path d="M-37 965L2618 965" stroke="#838383"/>
<path d="M-39 1005L2618 1005" stroke="#838383"/>
<path d="M-37 1045L2618 1045" stroke="#838383"/>
<path d="M-37 1085L2618 1085" stroke="#838383"/>
<path d="M-37 1125L2618 1125" stroke="#838383"/>
<path d="M-37 1165L2618 1165" stroke="#838383"/>
<path d="M-37 1205L2618 1205" stroke="#838383"/>
<path d="M-37 1245L2618 1245" stroke="#838383"/>
<path d="M-39 1285L2618 1285" stroke="#838383"/>
<path d="M-37 1325L2618 1325" stroke="#838383"/>
<path d="M-37 1365L2618 1365" stroke="#838383"/>
<path d="M-38 1405L2618 1405" stroke="#838383"/>
<path d="M-38 1445L2618 1445" stroke="#838383"/>
<path d="M-38 1485L2618 1485" stroke="#838383"/>
<path d="M-38 1525L2618 1525" stroke="#838383"/>
<path d="M-38 1565L2618 1565" stroke="#838383"/>
<path d="M-38 1605L2618 1605" stroke="#838383"/>
<path d="M-38 1645L2618 1645" stroke="#838383"/>
<path d="M-38 1685L2618 1685" stroke="#838383"/>
<path d="M-38 1725L2618 1725" stroke="#838383"/>
<path d="M-38 1765L2618 1765" stroke="#838383"/>
<path d="M-38 1805L2618 1805" stroke="#838383"/>
<path d="M-38 1845L2618 1845" stroke="#838383"/>
<path d="M-38 1885L2618 1885" stroke="#838383"/>
<path d="M-38 1925L2618 1925" stroke="#838383"/>
<path d="M-38 1965L2618 1965" stroke="#838383"/>
<path d="M-38 2005L2618 2005" stroke="#838383"/>
<path d="M-38 2045L2618 2045" stroke="#838383"/>
<path d="M-38 2085L2618 2085" stroke="#838383"/>
<path d="M-38 2125L2618 2125" stroke="#838383"/>
<path d="M-38 2165L2618 2165" stroke="#838383"/>
<path d="M-38 2205L2618 2205" stroke="#838383"/>
<path d="M-38 2245L2618 2245" stroke="#838383"/>
<path d="M-38 2285L2618 2285" stroke="#838383"/>
<path d="M-38 2325L2618 2325" stroke="#838383"/>
<path d="M-38 2365L2618 2365" stroke="#838383"/>
<path d="M-38 2405L2618 2405" stroke="#838383"/>
<path d="M-38 2445L2618 2445" stroke="#838383"/>
<path d="M-38 2485L2618 2485" stroke="#838383"/>
<path d="M-38 2525L2618 2525" stroke="#838383"/>
<path d="M-38 2565L2618 2565" stroke="#838383"/>
<circle cx="573.986" cy="956.984" r="10.5" transform="rotate(8.821 573.986 956.984)" fill="black"/>
<circle cx="1871.6" cy="848.986" r="10.5" transform="rotate(8.821 1871.6 848.986)" fill="black"/>
<circle cx="957.246" cy="892.246" r="10.5" transform="rotate(85.7702 957.246 892.246)" fill="black"/>
<circle cx="2242.06" cy="832.335" r="10.5" transform="rotate(85.7702 2242.06 832.335)" fill="black"/>
<circle cx="1244.64" cy="433.176" r="10.5" transform="rotate(62.4222 1244.64 433.176)" fill="black"/>
<circle cx="710.028" cy="1227.18" r="10.5" transform="rotate(62.4222 710.028 1227.18)" fill="black"/>
<circle cx="2066.17" cy="1151.17" r="10.5" transform="rotate(62.4222 2066.17 1151.17)" fill="black"/>
<circle cx="1208.03" cy="1374.18" r="10.5" transform="rotate(62.4222 1208.03 1374.18)" fill="black"/>
<circle cx="2505.64" cy="1266.18" r="10.5" transform="rotate(62.4222 2505.64 1266.18)" fill="black"/>
<circle cx="221.028" cy="1230.18" r="10.5" transform="rotate(62.4222 221.028 1230.18)" fill="black"/>
<path d="M1908.03 1353.48C1902.89 1356.16 1896.55 1354.17 1893.86 1349.03C1891.18 1343.89 1893.17 1337.55 1898.31 1334.86C1903.45 1332.18 1909.79 1334.17 1912.48 1339.31C1915.16 1344.45 1913.17 1350.79 1908.03 1353.48Z" fill="black"/>
<circle cx="279.028" cy="931.174" r="10.5" transform="rotate(62.4222 279.028 931.174)" fill="black"/>
<circle cx="1720.17" cy="802.168" r="10.5" transform="rotate(62.4222 1720.17 802.168)" fill="black"/>
<circle cx="338.168" cy="728.166" r="10.5" transform="rotate(62.4222 338.168 728.166)" fill="black"/>
<circle cx="1766.17" cy="507.168" r="10.5" transform="rotate(62.4222 1766.17 507.168)" fill="black"/>
<circle cx="4.02811" cy="847.174" r="10.5" transform="rotate(62.4222 4.02811 847.174)" fill="black"/>
<circle cx="1364.17" cy="760.168" r="10.5" transform="rotate(62.4222 1364.17 760.168)" fill="black"/>
<circle cx="456.026" cy="1452.37" r="10.5" transform="rotate(90.892 456.026 1452.37)" fill="black"/>
<circle cx="1753.64" cy="1344.37" r="10.5" transform="rotate(90.892 1753.64 1344.37)" fill="black"/>
<circle cx="1195.81" cy="919.035" r="10.5" transform="rotate(-49.389 1195.81 919.035)" fill="black"/>
<circle cx="15.6877" cy="167.837" r="10.5" transform="rotate(138.068 15.6877 167.837)" fill="black"/>
<circle cx="1313.3" cy="59.8364" r="10.5" transform="rotate(138.068 1313.3 59.8364)" fill="black"/>
<circle cx="648.703" cy="523.703" r="10.5" transform="rotate(-166.188 648.703 523.703)" fill="black"/>
<circle cx="1979.7" cy="311.703" r="10.5" transform="rotate(-166.188 1979.7 311.703)" fill="black"/>
<circle cx="1137.56" cy="623.709" r="10.5" transform="rotate(-166.188 1137.56 623.709)" fill="black"/>
<circle cx="2400.7" cy="592.703" r="10.5" transform="rotate(-166.188 2400.7 592.703)" fill="black"/>
<circle cx="939.125" cy="245.131" r="10.5" transform="rotate(5.41358 939.125 245.131)" fill="black"/>
<circle cx="2284.44" cy="158.444" r="10.5" transform="rotate(5.41358 2284.44 158.444)" fill="black"/>
<circle cx="148.533" cy="393.534" r="10.5" transform="rotate(-123.159 148.533 393.534)" fill="black"/>
<circle cx="1482.53" cy="252.533" r="10.5" transform="rotate(-123.159 1482.53 252.533)" fill="black"/>
<circle cx="407.533" cy="140.533" r="10.5" transform="rotate(-123.159 407.533 140.533)" fill="black"/>
<circle cx="1705.15" cy="32.5332" r="10.5" transform="rotate(-123.159 1705.15 32.5332)" fill="black"/>
<circle cx="1432.25" cy="1049.25" r="10.5" transform="rotate(85.7702 1432.25 1049.25)" fill="black"/>
<circle cx="1758.7" cy="157.703" r="10.5" transform="rotate(-166.188 1758.7 157.703)" fill="black"/>
<circle cx="585.211" cy="2489.98" r="10.5" transform="rotate(8.821 585.211 2489.98)" fill="black"/>
<circle cx="1882.83" cy="2381.99" r="10.5" transform="rotate(8.821 1882.83 2381.99)" fill="black"/>
<circle cx="968.471" cy="2425.25" r="10.5" transform="rotate(85.7702 968.471 2425.25)" fill="black"/>
<circle cx="2253.28" cy="2365.33" r="10.5" transform="rotate(85.7702 2253.28 2365.33)" fill="black"/>
<circle cx="1255.87" cy="1966.18" r="10.5" transform="rotate(62.4222 1255.87 1966.18)" fill="black"/>
<circle cx="290.254" cy="2464.17" r="10.5" transform="rotate(62.4222 290.254 2464.17)" fill="black"/>
<circle cx="1731.39" cy="2335.17" r="10.5" transform="rotate(62.4222 1731.39 2335.17)" fill="black"/>
<circle cx="349.394" cy="2261.17" r="10.5" transform="rotate(62.4222 349.394 2261.17)" fill="black"/>
<circle cx="1777.39" cy="2040.17" r="10.5" transform="rotate(62.4222 1777.39 2040.17)" fill="black"/>
<circle cx="15.2537" cy="2380.17" r="10.5" transform="rotate(62.4222 15.2537 2380.17)" fill="black"/>
<circle cx="1375.39" cy="2293.17" r="10.5" transform="rotate(62.4222 1375.39 2293.17)" fill="black"/>
<circle cx="1207.03" cy="2452.03" r="10.5" transform="rotate(-49.389 1207.03 2452.03)" fill="black"/>
<circle cx="26.9132" cy="1700.84" r="10.5" transform="rotate(138.068 26.9132 1700.84)" fill="black"/>
<circle cx="1324.53" cy="1592.84" r="10.5" transform="rotate(138.068 1324.53 1592.84)" fill="black"/>
<circle cx="659.929" cy="2056.7" r="10.5" transform="rotate(-166.188 659.929 2056.7)" fill="black"/>
<circle cx="1990.93" cy="1844.7" r="10.5" transform="rotate(-166.188 1990.93 1844.7)" fill="black"/>
<circle cx="1148.79" cy="2156.71" r="10.5" transform="rotate(-166.188 1148.79 2156.71)" fill="black"/>
<circle cx="2411.93" cy="2125.7" r="10.5" transform="rotate(-166.188 2411.93 2125.7)" fill="black"/>
<circle cx="950.351" cy="1778.13" r="10.5" transform="rotate(5.41358 950.351 1778.13)" fill="black"/>
<circle cx="2295.67" cy="1691.44" r="10.5" transform="rotate(5.41358 2295.67 1691.44)" fill="black"/>
<circle cx="159.759" cy="1926.53" r="10.5" transform="rotate(-123.159 159.759 1926.53)" fill="black"/>
<circle cx="1493.76" cy="1785.53" r="10.5" transform="rotate(-123.159 1493.76 1785.53)" fill="black"/>
<circle cx="418.759" cy="1673.53" r="10.5" transform="rotate(-123.159 418.759 1673.53)" fill="black"/>
<circle cx="1663.53" cy="1441.53" r="10.5" transform="rotate(-123.159 1663.53 1441.53)" fill="black"/>
<circle cx="1774.7" cy="1614.7" r="10.5" transform="rotate(-166.188 1774.7 1614.7)" fill="black"/>
<g filter="url(#filter0_d_51_187)">
<rect x="286.178" y="1380.42" width="70.6557" height="70.6557" rx="3" transform="rotate(162.586 286.178 1380.42)" fill="#179E7E"/>
<rect x="1689.56" y="1326.42" width="70.6557" height="70.6557" rx="3" transform="rotate(162.586 1689.56 1326.42)" fill="#179E7E"/>
<rect x="736.318" y="1384.87" width="100" height="100" rx="3" transform="rotate(-60.3049 736.318 1384.87)" fill="#2C6FEF"/>
<rect x="2128" y="1437.87" width="100" height="100" rx="3" transform="rotate(-60.3049 2128 1437.87)" fill="#2C6FEF"/>
<path d="M590 1198.73C589.216 1199.5 587.948 1199.5 587.191 1198.7C574.119 1184.8 566.845 1166.4 566.916 1147.28C566.99 1127.48 574.924 1108.53 588.974 1094.58C603.023 1080.63 622.037 1072.84 641.832 1072.92C660.96 1072.99 679.303 1080.4 693.1 1093.57C693.899 1094.34 693.892 1095.6 693.108 1096.38L677.407 1111.97C676.623 1112.75 675.359 1112.74 674.549 1111.99C665.642 1103.72 653.934 1099.08 641.735 1099.04C628.868 1098.99 616.509 1104.06 607.377 1113.12C598.245 1122.19 593.087 1134.51 593.039 1147.37C592.994 1159.57 597.545 1171.31 605.742 1180.28C606.487 1181.1 606.486 1182.36 605.702 1183.14L590 1198.73Z" fill="#179E7E"/>
<path d="M-37.9999 2326.73C-38.7839 2327.5 -40.0525 2327.5 -40.8093 2326.7C-53.8814 2312.8 -61.1551 2294.4 -61.0839 2275.28C-61.0102 2255.48 -53.0759 2236.53 -39.0264 2222.58C-24.9769 2208.64 -5.96314 2200.84 13.8321 2200.92C32.9597 2200.99 51.303 2208.4 65.0999 2221.57C65.8987 2222.34 65.8923 2223.6 65.1083 2224.38L49.4065 2239.97C48.6226 2240.75 47.3588 2240.74 46.549 2239.99C37.6416 2231.72 25.9336 2227.08 13.7348 2227.04C0.867926 2226.99 -11.491 2232.06 -20.6232 2241.12C-29.7553 2250.19 -34.9126 2262.51 -34.9606 2275.37C-35.006 2287.57 -30.4553 2299.31 -22.2582 2308.28C-21.513 2309.1 -21.5142 2310.36 -22.2981 2311.14L-37.9999 2326.73Z" fill="#F2B135"/>
<path d="M1876.46 1047.13C1875.42 1046.77 1874.87 1045.63 1875.26 1044.6C1882.02 1026.76 1895.37 1012.16 1912.6 1003.84C1930.42 995.231 1950.94 994.057 1969.63 1000.57C1988.32 1007.09 2003.66 1020.77 2012.26 1038.59C2020.58 1055.82 2021.96 1075.55 2016.16 1093.73C2015.83 1094.78 2014.68 1095.33 2013.64 1094.97L1992.75 1087.68C1991.71 1087.32 1991.16 1086.18 1991.48 1085.12C1995.01 1073.5 1994.05 1060.94 1988.74 1049.95C1983.14 1038.37 1973.18 1029.48 1961.03 1025.24C1948.88 1021.01 1935.54 1021.77 1923.96 1027.36C1912.97 1032.67 1904.41 1041.9 1899.94 1053.2C1899.53 1054.23 1898.4 1054.78 1897.35 1054.42L1876.46 1047.13Z" fill="#179E7E"/>
<rect x="190.715" y="1133.11" width="108.252" height="267.457" rx="1.5" transform="rotate(-105 190.715 1133.11)" fill="#179E7E" stroke="black" stroke-width="3"/>
<rect x="1541.85" y="1181.62" width="108.252" height="267.457" rx="1.5" transform="rotate(-105 1541.85 1181.62)" fill="#179E7E" stroke="black" stroke-width="3"/>
<path d="M938.044 1170.11C939.251 1169.63 940.631 1169.98 941.463 1170.98L976.264 1212.81C977.095 1213.81 977.189 1215.23 976.495 1216.33L947.461 1262.36C946.767 1263.46 945.445 1263.99 944.185 1263.67L891.439 1250.28C890.179 1249.96 889.269 1248.86 889.184 1247.57L885.619 1193.26C885.534 1191.97 886.294 1190.76 887.501 1190.28L938.044 1170.11Z" fill="#179E7E"/>
<path d="M2350.04 1177.11C2351.25 1176.63 2352.63 1176.98 2353.46 1177.98L2388.26 1219.81C2389.1 1220.81 2389.19 1222.23 2388.5 1223.33L2359.46 1269.36C2358.77 1270.46 2357.45 1270.99 2356.19 1270.67L2303.44 1257.28C2302.18 1256.96 2301.27 1255.86 2301.18 1254.57L2297.62 1200.26C2297.53 1198.97 2298.29 1197.76 2299.5 1197.28L2350.04 1177.11Z" fill="#179E7E"/>
<rect x="1059.2" y="1330" width="77.5946" height="188.635" rx="3" transform="rotate(30.3105 1059.2 1330)" fill="#F2B135"/>
<rect x="2435.2" y="1326" width="77.5946" height="188.635" rx="3" transform="rotate(30.3105 2435.2 1326)" fill="#F2B135"/>
<path d="M771.524 1070.7C770.129 1069.81 769.717 1067.95 770.693 1066.61C777.878 1056.76 788.44 1049.85 800.416 1047.23C813.371 1044.4 826.92 1046.84 838.081 1054C849.243 1061.16 857.102 1072.46 859.932 1085.42C862.547 1097.39 860.665 1109.87 854.71 1120.51C853.901 1121.95 852.036 1122.36 850.642 1121.46L811.083 1096.08L771.524 1070.7Z" fill="#F2B135"/>
<path d="M2115.62 1060.72C2114.67 1059.36 2115 1057.48 2116.4 1056.6C2129.7 1048.22 2145.67 1045.06 2161.22 1047.82C2177.75 1050.75 2192.44 1060.13 2202.06 1073.9C2211.68 1087.66 2215.43 1104.69 2212.5 1121.22C2209.74 1136.76 2201.28 1150.68 2188.84 1160.28C2187.53 1161.3 2185.65 1160.96 2184.7 1159.6L2150.16 1110.16L2115.62 1060.72Z" fill="#F2B135"/>
<path d="M670.801 809.085L737.965 825.435C739.787 825.878 741.692 825.146 742.748 823.597L781.681 766.479C782.48 765.307 784.31 765.796 784.416 767.211L789.622 836.14C789.763 838.009 791.048 839.595 792.847 840.121L859.201 859.498C860.563 859.896 860.663 861.787 859.35 862.325L795.403 888.576C793.669 889.288 792.558 891 792.614 892.874L794.69 961.968C794.732 963.386 792.965 964.065 792.047 962.984L747.32 910.279C746.107 908.849 744.135 908.322 742.371 908.954L677.3 932.279C675.964 932.758 674.772 931.287 675.517 930.079L711.821 871.255C712.806 869.66 712.698 867.622 711.552 866.139L669.26 811.46C668.392 810.338 669.423 808.75 670.801 809.085Z" fill="#2C6FEF" stroke="black" stroke-width="3"/>
<path d="M2010.03 809.293L2077.19 825.643C2079.01 826.086 2080.92 825.354 2081.97 823.805L2120.91 766.687C2121.71 765.515 2123.54 766.004 2123.64 767.419L2128.85 836.348C2128.99 838.217 2130.27 839.803 2132.07 840.329L2198.43 859.706C2199.79 860.104 2199.89 861.995 2198.58 862.533L2134.63 888.784C2132.89 889.496 2131.78 891.208 2131.84 893.082L2133.92 962.176C2133.96 963.594 2132.19 964.273 2131.27 963.192L2086.55 910.487C2085.33 909.057 2083.36 908.53 2081.6 909.162L2016.53 932.487C2015.19 932.966 2014 931.495 2014.74 930.287L2051.05 871.463C2052.03 869.868 2051.92 867.83 2050.78 866.347L2008.49 811.668C2007.62 810.546 2008.65 808.958 2010.03 809.293Z" fill="#2C6FEF" stroke="black" stroke-width="3"/>
<circle cx="1016.62" cy="1017.69" r="50" transform="rotate(1.65797 1016.62 1017.69)" fill="#179E7E"/>
<circle cx="2304.43" cy="969.425" r="50" transform="rotate(1.65797 2304.43 969.425)" fill="#179E7E"/>
<rect x="1281.45" y="1489.6" width="58" height="141" rx="3" transform="rotate(-150.472 1281.45 1489.6)" fill="#2C6FEF"/>
<rect x="2566.11" y="1529.01" width="58" height="141" rx="3" transform="rotate(-125.922 2566.11 1529.01)" fill="#2C6FEF"/>
<circle cx="727.436" cy="641.436" r="50" transform="rotate(-71.2187 727.436 641.436)" fill="#F25B47"/>
<circle cx="2083.47" cy="602.47" r="68.9444" transform="rotate(-71.2187 2083.47 602.47)" fill="#F25B47"/>
<rect x="1087" y="1263.99" width="100" height="100" rx="3" transform="rotate(-89.1802 1087 1263.99)" fill="#F25B47"/>
<rect x="2447" y="1109.57" width="100" height="100" rx="3" transform="rotate(-45.6979 2447 1109.57)" fill="#F25B47"/>
<circle cx="1436.95" cy="886.953" r="50" transform="rotate(36.6084 1436.95 886.953)" fill="#2C6FEF"/>
<rect x="1437.33" y="1213" width="77.5946" height="188.635" rx="3" transform="rotate(6.49135 1437.33 1213)" fill="#F2B135"/>
<path d="M1227.87 1067.1C1227.66 1069.93 1224 1070.9 1222.4 1068.55L1208.29 1047.79C1207.59 1046.76 1206.32 1046.27 1205.1 1046.56L1180.71 1052.47C1177.95 1053.13 1175.89 1049.96 1177.63 1047.71L1193.01 1027.88C1193.78 1026.89 1193.85 1025.53 1193.2 1024.47L1180.04 1003.09C1178.56 1000.67 1180.94 997.73 1183.61 998.691L1207.23 1007.19C1208.41 1007.62 1209.72 1007.27 1210.53 1006.31L1226.8 987.196C1228.64 985.035 1232.17 986.398 1232.08 989.234L1231.3 1014.33C1231.26 1015.57 1232 1016.72 1233.15 1017.19L1256.36 1026.76C1258.99 1027.84 1258.78 1031.62 1256.06 1032.41L1231.95 1039.42C1230.75 1039.76 1229.89 1040.82 1229.8 1042.07L1227.87 1067.1Z" fill="#179E7E"/>
<rect x="872.672" y="729.457" width="77.5946" height="188.635" rx="3" transform="rotate(-76.4953 872.672 729.457)" fill="#F2B135"/>
<rect x="2211.9" y="729.665" width="77.5946" height="188.635" rx="3" transform="rotate(-76.4953 2211.9 729.665)" fill="#F2B135"/>
<path d="M67.1814 1234.91C65.2624 1236.19 62.6722 1234.92 62.5191 1232.62L57.4664 1156.57C57.3133 1154.27 59.7121 1152.66 61.7843 1153.68L130.165 1187.33C132.238 1188.35 132.429 1191.23 130.51 1192.51L67.1814 1234.91Z" fill="#2C6FEF"/>
<path d="M875.228 507.243C876.517 507.409 877.553 508.386 877.794 509.663L883.495 539.927C883.735 541.204 883.126 542.491 881.986 543.115L854.965 557.889C853.824 558.512 852.412 558.33 851.467 557.439L829.066 536.305C828.121 535.414 827.857 534.014 828.413 532.84L841.59 505.005C842.146 503.83 843.395 503.147 844.684 503.313L875.228 507.243Z" fill="#F25B47"/>
<path d="M2312.63 523.243C2313.92 523.409 2314.96 524.386 2315.2 525.663L2320.9 555.927C2321.14 557.204 2320.53 558.491 2319.39 559.114L2292.37 573.888C2291.23 574.512 2289.82 574.33 2288.87 573.438L2266.47 552.305C2265.53 551.413 2265.26 550.014 2265.82 548.839L2278.99 521.005C2279.55 519.83 2280.8 519.147 2282.09 519.313L2312.63 523.243Z" fill="#F25B47"/>
<path d="M1070.95 872.804C1069.1 870.652 1070.99 867.372 1073.78 867.899L1098.44 872.561C1099.67 872.793 1100.92 872.239 1101.56 871.171L1114.61 849.722C1116.08 847.297 1119.78 848.084 1120.14 850.899L1123.33 875.799C1123.49 877.038 1124.4 878.049 1125.62 878.337L1150.05 884.111C1152.81 884.764 1153.21 888.531 1150.64 889.743L1127.95 900.471C1126.82 901.005 1126.14 902.183 1126.24 903.429L1128.3 928.448C1128.53 931.275 1125.07 932.816 1123.12 930.751L1105.91 912.481C1105.05 911.572 1103.72 911.289 1102.57 911.771L1079.41 921.459C1076.79 922.554 1074.26 919.739 1075.62 917.251L1087.67 895.232C1088.27 894.136 1088.13 892.782 1087.32 891.835L1070.95 872.804Z" fill="#F25B47"/>
<path d="M2438.59 910.796C2436.74 908.645 2438.63 905.365 2441.42 905.892L2466.08 910.553C2467.31 910.785 2468.56 910.231 2469.21 909.163L2482.25 887.714C2483.72 885.289 2487.42 886.077 2487.79 888.891L2490.97 913.791C2491.13 915.03 2492.04 916.042 2493.26 916.329L2517.69 922.104C2520.45 922.756 2520.85 926.523 2518.28 927.735L2495.59 938.463C2494.46 938.997 2493.78 940.176 2493.88 941.421L2495.94 966.44C2496.17 969.268 2492.71 970.808 2490.76 968.743L2473.55 950.473C2472.69 949.564 2471.36 949.281 2470.21 949.763L2447.05 959.451C2444.43 960.546 2441.9 957.732 2443.26 955.243L2455.31 933.224C2455.91 932.128 2455.77 930.774 2454.96 929.827L2438.59 910.796Z" fill="#F25B47"/>
<circle cx="620.611" cy="1340.7" r="50" transform="rotate(16.4882 620.611 1340.7)" fill="#F2B135"/>
<circle cx="2057.22" cy="1285.62" r="77.4324" transform="rotate(16.4882 2057.22 1285.62)" fill="#F2B135"/>
<rect x="210.453" y="460.054" width="32.2535" height="486.745" rx="3" transform="rotate(-48.2258 210.453 460.054)" fill="#179E7E"/>
<rect x="1588" y="452.054" width="32.2535" height="486.745" rx="3" transform="rotate(-48.2258 1588 452.054)" fill="#179E7E"/>
<path d="M402.422 1160.21C403.889 1158.43 406.737 1158.9 407.548 1161.06L434.313 1232.42C435.124 1234.58 433.29 1236.81 431.012 1236.43L355.834 1223.93C353.555 1223.56 352.542 1220.85 354.009 1219.07L402.422 1160.21Z" fill="#2C6FEF"/>
<path d="M1864.42 1162.21C1865.89 1160.43 1868.74 1160.9 1869.55 1163.06L1896.31 1234.42C1897.12 1236.58 1895.29 1238.81 1893.01 1238.43L1817.83 1225.93C1815.56 1225.56 1814.54 1222.85 1816.01 1221.07L1864.42 1162.21Z" fill="#2C6FEF"/>
<path d="M-29.6522 931.135C-30.1008 928.87 -27.9287 926.968 -25.7426 927.712L96.4252 969.3C98.6114 970.045 99.1721 972.876 97.4345 974.398L0.334251 1059.4C-1.40336 1060.93 -4.13611 1059.99 -4.5847 1057.73L-29.6522 931.135Z" fill="#F2B135"/>
<path d="M1599.58 856.128C1599.14 853.862 1601.31 851.961 1603.49 852.705L1725.66 894.293C1727.85 895.037 1728.41 897.869 1726.67 899.39L1629.57 984.397C1627.83 985.918 1625.1 984.987 1624.65 982.722L1599.58 856.128Z" fill="#F2B135"/>
<circle cx="139.866" cy="873.105" r="36.9284" transform="rotate(-16.73 139.866 873.105)" fill="#F25B47"/>
<rect x="414.924" y="445.055" width="58" height="141" rx="3" transform="rotate(-39.7086 414.924 445.055)" fill="#F2B135"/>
<rect x="1831" y="472.25" width="58" height="141" rx="3" transform="rotate(-28.023 1831 472.25)" fill="#F2B135"/>
<path d="M1125.14 179.286C1125.61 178.072 1126.8 177.296 1128.1 177.364L1182.44 180.188C1183.74 180.255 1184.85 181.151 1185.19 182.406L1199.29 234.965C1199.63 236.22 1199.12 237.55 1198.03 238.258L1152.4 267.917C1151.31 268.625 1149.89 268.551 1148.88 267.734L1106.58 233.505C1105.57 232.688 1105.2 231.313 1105.66 230.099L1125.14 179.286Z" fill="#F2B135"/>
<path d="M2456.77 192.502C2457.24 191.288 2458.43 190.512 2459.73 190.58L2514.08 193.404C2515.37 193.471 2516.48 194.367 2516.82 195.622L2530.93 248.181C2531.26 249.436 2530.75 250.765 2529.66 251.474L2484.04 281.133C2482.95 281.841 2481.52 281.767 2480.51 280.95L2438.21 246.721C2437.2 245.904 2436.83 244.529 2437.29 243.315L2456.77 192.502Z" fill="#F2B135"/>
<rect x="-52" y="1365.24" width="77.5946" height="188.635" rx="3" transform="rotate(-46.457 -52 1365.24)" fill="#2C6FEF"/>
<circle cx="1317.46" cy="1165.46" r="50" transform="rotate(115.044 1317.46 1165.46)" fill="#179E7E"/>
<rect x="605.706" y="414.949" width="58" height="141" rx="3" transform="rotate(-79.0764 605.706 414.949)" fill="#F25B47"/>
<rect x="1981" y="423.949" width="58" height="141" rx="3" transform="rotate(-79.0764 1981 423.949)" fill="#F25B47"/>
<path d="M1203.13 550.067C1201.48 548.452 1202.2 545.656 1204.42 545.034L1277.82 524.515C1280.04 523.893 1282.11 525.912 1281.53 528.149L1262.6 601.971C1262.03 604.208 1259.25 604.986 1257.6 603.37L1203.13 550.067Z" fill="#2C6FEF"/>
<path d="M2454.13 579.067C2452.48 577.452 2453.2 574.656 2455.42 574.034L2528.82 553.515C2531.04 552.893 2533.11 554.912 2532.53 557.149L2513.6 630.971C2513.03 633.208 2510.25 633.986 2508.6 632.37L2454.13 579.067Z" fill="#2C6FEF"/>
<path d="M397.895 1316.42C397.996 1313.58 401.612 1312.46 403.303 1314.74L418.261 1334.9C419.006 1335.9 420.295 1336.34 421.496 1335.99L445.629 1329.08C448.357 1328.3 450.545 1331.39 448.9 1333.71L434.349 1354.16C433.625 1355.18 433.608 1356.54 434.306 1357.58L448.335 1378.39C449.921 1380.75 447.656 1383.78 444.949 1382.93L420.998 1375.42C419.806 1375.04 418.506 1375.45 417.736 1376.43L402.274 1396.21C400.526 1398.44 396.939 1397.22 396.91 1394.39L396.658 1369.29C396.646 1368.04 395.86 1366.93 394.686 1366.5L371.1 1357.9C368.434 1356.93 368.482 1353.14 371.172 1352.24L394.967 1344.24C396.152 1343.85 396.965 1342.75 397.009 1341.51L397.895 1316.42Z" fill="#F25B47"/>
<path d="M1737.12 1316.63C1737.22 1313.79 1740.84 1312.67 1742.53 1314.94L1757.49 1335.1C1758.23 1336.11 1759.52 1336.54 1760.72 1336.2L1784.86 1329.29C1787.58 1328.51 1789.77 1331.6 1788.13 1333.91L1773.58 1354.37C1772.85 1355.39 1772.83 1356.75 1773.53 1357.78L1787.56 1378.6C1789.15 1380.95 1786.88 1383.99 1784.18 1383.14L1760.22 1375.62C1759.03 1375.25 1757.73 1375.65 1756.96 1376.64L1741.5 1396.41C1739.75 1398.65 1736.16 1397.43 1736.14 1394.6L1735.88 1369.49C1735.87 1368.24 1735.09 1367.13 1733.91 1366.71L1710.33 1358.11C1707.66 1357.14 1707.71 1353.35 1710.4 1352.45L1734.19 1344.45C1735.38 1344.05 1736.19 1342.96 1736.24 1341.71L1737.12 1316.63Z" fill="#F25B47"/>
<rect x="1305" y="656.291" width="58" height="141" rx="3" transform="rotate(-69.3994 1305 656.291)" fill="#F2B135"/>
<rect x="1005.8" y="295.78" width="15.0094" height="276.857" rx="3" transform="rotate(-58.9055 1005.8 295.78)" fill="#2C6FEF"/>
<rect x="2284.28" y="263.025" width="15.0094" height="331.011" rx="3" transform="rotate(-66.1429 2284.28 263.025)" fill="#2C6FEF"/>
<path d="M912.795 402.911C910 403.396 908.155 400.088 910.037 397.965L926.688 379.179C927.517 378.244 927.679 376.893 927.095 375.788L915.368 353.592C914.042 351.083 916.618 348.307 919.219 349.441L942.231 359.471C943.377 359.971 944.712 359.707 945.582 358.811L963.067 340.799C965.044 338.763 968.48 340.354 968.206 343.178L965.777 368.164C965.657 369.408 966.319 370.596 967.441 371.147L989.975 382.21C992.522 383.461 992.07 387.221 989.299 387.833L964.787 393.244C963.566 393.513 962.641 394.511 962.464 395.748L958.905 420.598C958.503 423.406 954.787 424.139 953.349 421.693L940.628 400.052C939.994 398.974 938.76 398.402 937.528 398.616L912.795 402.911Z" fill="#F2B135"/>
<path d="M2224.8 402.911C2222 403.396 2220.15 400.088 2222.04 397.965L2238.69 379.179C2239.52 378.244 2239.68 376.893 2239.1 375.788L2227.37 353.592C2226.04 351.083 2228.62 348.307 2231.22 349.441L2254.23 359.471C2255.38 359.971 2256.71 359.707 2257.58 358.811L2275.07 340.799C2277.04 338.763 2280.48 340.354 2280.21 343.178L2277.78 368.164C2277.66 369.408 2278.32 370.596 2279.44 371.147L2301.97 382.21C2304.52 383.461 2304.07 387.221 2301.3 387.833L2276.79 393.244C2275.57 393.513 2274.64 394.511 2274.46 395.748L2270.91 420.598C2270.5 423.406 2266.79 424.139 2265.35 421.693L2252.63 400.052C2251.99 398.974 2250.76 398.402 2249.53 398.616L2224.8 402.911Z" fill="#F2B135"/>
<path d="M200.601 591.374L250.127 740.544C250.491 741.64 249.532 742.718 248.401 742.486L94.4529 710.791C93.3219 710.559 92.8671 709.189 93.6342 708.326L198.056 590.85C198.823 589.987 200.237 590.278 200.601 591.374Z" fill="#2C6FEF" stroke="black" stroke-width="3"/>
<path d="M1616.99 591.912L1666.51 741.082C1666.88 742.178 1665.92 743.256 1664.79 743.024L1510.84 711.33C1509.71 711.097 1509.26 709.727 1510.02 708.864L1614.44 591.388C1615.21 590.525 1616.63 590.816 1616.99 591.912Z" fill="#2C6FEF" stroke="black" stroke-width="3"/>
<rect x="1325.7" y="876.384" width="77.5946" height="188.635" rx="3" transform="rotate(159.205 1325.7 876.384)" fill="#F25B47"/>
<rect x="2664.92" y="876.591" width="77.5946" height="188.635" rx="3" transform="rotate(159.205 2664.92 876.591)" fill="#F25B47"/>
<path d="M1191.89 66.9699L1295.66 -28.4281C1296.51 -29.2095 1297.89 -28.7777 1298.14 -27.6508L1328.87 109.918C1329.13 111.045 1328.06 112.022 1326.96 111.677L1192.46 69.5055C1191.36 69.16 1191.04 67.7514 1191.89 66.9699Z" fill="#F25B47" stroke="black" stroke-width="3"/>
<path d="M2525.98 98.8525L2629.75 3.4545C2630.6 2.67303 2631.98 3.10486 2632.23 4.23178L2662.96 141.801C2663.21 142.928 2662.15 143.905 2661.05 143.559L2526.54 101.388C2525.44 101.043 2525.13 99.6339 2525.98 98.8525Z" fill="#F25B47" stroke="black" stroke-width="3"/>
<path d="M49.8548 471.206C48.5734 468.674 51.1974 465.943 53.7782 467.122L76.6107 477.555C77.7474 478.074 79.087 477.835 79.9731 476.953L97.7715 459.251C99.7833 457.25 103.191 458.902 102.867 461.721L100.001 486.659C99.8583 487.901 100.5 489.101 101.612 489.671L123.948 501.128C126.473 502.423 125.955 506.175 123.174 506.738L98.5702 511.718C97.3454 511.966 96.4025 512.947 96.2037 514.181L92.2097 538.965C91.7583 541.766 88.0302 542.433 86.6354 539.962L74.2957 518.101C73.6814 517.013 72.4568 516.419 71.2219 516.611L46.4174 520.471C43.6137 520.908 41.8273 517.568 43.7463 515.478L60.724 496.987C61.5692 496.067 61.7552 494.718 61.1909 493.603L49.8548 471.206Z" fill="#179E7E"/>
<path d="M1389.08 471.413C1387.8 468.882 1390.42 466.151 1393 467.33L1415.84 477.763C1416.97 478.282 1418.31 478.042 1419.2 477.161L1437 459.458C1439.01 457.457 1442.42 459.109 1442.09 461.928L1439.23 486.867C1439.08 488.108 1439.73 489.308 1440.84 489.879L1463.17 501.336C1465.7 502.631 1465.18 506.382 1462.4 506.945L1437.8 511.926C1436.57 512.174 1435.63 513.155 1435.43 514.389L1431.44 539.172C1430.98 541.973 1427.26 542.64 1425.86 540.169L1413.52 518.309C1412.91 517.22 1411.68 516.627 1410.45 516.819L1385.64 520.679C1382.84 521.115 1381.05 517.776 1382.97 515.686L1399.95 497.195C1400.79 496.274 1400.98 494.926 1400.42 493.811L1389.08 471.413Z" fill="#179E7E"/>
<rect x="1150.04" y="35.8586" width="15.0094" height="226.51" rx="3" transform="rotate(132.857 1150.04 35.8586)" fill="#F2B135"/>
<rect x="2489.27" y="36.0664" width="15.0094" height="226.51" rx="3" transform="rotate(132.857 2489.27 36.0664)" fill="#F2B135"/>
<path d="M666.518 137.243L766.363 94.2073C766.959 93.9501 767.654 94.1064 768.083 94.5944L839.866 176.254C840.295 176.742 840.361 177.451 840.03 178.009L784.55 271.514C784.218 272.072 783.564 272.354 782.93 272.212L676.858 248.341C676.224 248.198 675.754 247.664 675.694 247.017L665.618 138.76C665.558 138.113 665.921 137.501 666.518 137.243Z" fill="#F2B135" stroke="black" stroke-width="3"/>
<path d="M2005.74 137.451L2105.59 94.4153C2106.18 94.1581 2106.88 94.3144 2107.31 94.8024L2179.09 176.462C2179.52 176.95 2179.59 177.659 2179.26 178.217L2123.78 271.722C2123.44 272.28 2122.79 272.562 2122.16 272.42L2016.08 248.549C2015.45 248.406 2014.98 247.872 2014.92 247.225L2004.84 138.968C2004.78 138.321 2005.15 137.709 2005.74 137.451Z" fill="#F2B135" stroke="black" stroke-width="3"/>
<path d="M988.029 517.187C987.403 516.317 987.288 515.18 987.728 514.202L1006.83 471.77C1007.27 470.792 1008.2 470.124 1009.27 470.017L1055.57 465.347C1056.64 465.24 1057.68 465.709 1058.31 466.579L1085.5 504.342C1086.13 505.212 1086.24 506.349 1085.8 507.327L1066.69 549.759C1066.25 550.737 1065.33 551.405 1064.26 551.513L1017.96 556.182C1016.89 556.29 1015.85 555.82 1015.22 554.95L988.029 517.187Z" fill="#179E7E"/>
<path d="M2375.12 438.105C2374.49 437.235 2374.37 436.098 2374.81 435.12L2393.92 392.688C2394.36 391.71 2395.29 391.042 2396.36 390.935L2442.66 386.265C2443.72 386.157 2444.77 386.627 2445.39 387.497L2472.59 425.26C2473.21 426.13 2473.33 427.267 2472.89 428.245L2453.78 470.677C2453.34 471.655 2452.41 472.323 2451.35 472.43L2405.05 477.1C2403.98 477.208 2402.94 476.738 2402.31 475.868L2375.12 438.105Z" fill="#179E7E"/>
<path d="M615.935 -8.45693C613.947 -9.6316 613.976 -12.5182 615.987 -13.6528L685.617 -52.9294C687.628 -54.064 690.114 -52.5957 690.091 -50.2864L689.29 29.6529C689.267 31.9622 686.753 33.3804 684.765 32.2058L615.935 -8.45693Z" fill="#179E7E"/>
<path d="M1955.16 -8.24917C1953.17 -9.42383 1953.2 -12.3104 1955.21 -13.4451L2024.84 -52.7216C2026.85 -53.8563 2029.34 -52.3879 2029.32 -50.0786L2028.52 29.8606C2028.49 32.1699 2025.98 33.5882 2023.99 32.4135L1955.16 -8.24917Z" fill="#179E7E"/>
<rect x="101.771" y="265.885" width="91.4167" height="222.237" rx="3" transform="rotate(-56.1007 101.771 265.885)" fill="#2C6FEF"/>
<rect x="1520" y="282.878" width="91.4167" height="222.237" rx="3" transform="rotate(-56.1007 1520 282.878)" fill="#2C6FEF"/>
<path d="M399.407 223.889C399.564 222.829 400.275 221.933 401.271 221.539L444.544 204.42C445.541 204.025 446.672 204.193 447.512 204.859L483.974 233.775C484.813 234.441 485.234 235.504 485.077 236.564L478.266 282.599C478.109 283.659 477.399 284.555 476.402 284.95L433.129 302.069C432.132 302.463 431.001 302.295 430.161 301.629L393.7 272.713C392.86 272.047 392.439 270.984 392.596 269.924L399.407 223.889Z" fill="#F2B135"/>
<path d="M1798.81 269.89C1798.97 268.829 1799.68 267.933 1800.68 267.539L1843.95 250.42C1844.95 250.026 1846.08 250.193 1846.92 250.859L1883.38 279.775C1884.22 280.441 1884.64 281.505 1884.48 282.565L1877.67 328.6C1877.52 329.66 1876.81 330.556 1875.81 330.95L1832.54 348.069C1831.54 348.463 1830.41 348.296 1829.57 347.63L1793.11 318.714C1792.27 318.048 1791.85 316.985 1792 315.924L1798.81 269.89Z" fill="#F2B135"/>
<path d="M817.642 7.35103C815.966 5.76279 816.637 2.95522 818.851 2.2974L910.937 -25.0665C913.15 -25.7243 915.246 -23.739 914.709 -21.4929L892.364 71.9378C891.827 74.1838 889.059 75.0061 887.383 73.4179L817.642 7.35103Z" fill="#F25B47"/>
<path d="M2156.87 7.55879C2155.19 5.97056 2155.86 3.16299 2158.08 2.50516L2250.16 -24.8587C2252.38 -25.5165 2254.47 -23.5312 2253.93 -21.2852L2231.59 72.1455C2231.05 74.3916 2228.29 75.2139 2226.61 73.6256L2156.87 7.55879Z" fill="#F25B47"/>
<circle cx="1029.95" cy="114.234" r="50" transform="rotate(163.748 1029.95 114.234)" fill="#2C6FEF"/>
<circle cx="2384.18" cy="96.4421" r="50" transform="rotate(163.748 2384.18 96.4421)" fill="#2C6FEF"/>
<rect x="360.773" y="892.817" width="58" height="141" rx="3" transform="rotate(-103.88 360.773 892.817)" fill="#F2B135"/>
<rect x="1769.48" y="758.89" width="58" height="141" rx="3" transform="rotate(-30.3367 1769.48 758.89)" fill="#F2B135"/>
<rect x="310.857" y="50.1233" width="58" height="141" rx="3" transform="rotate(-85.642 310.857 50.1233)" fill="#2C6FEF"/>
<rect x="1650.08" y="50.3311" width="58" height="141" rx="3" transform="rotate(-85.642 1650.08 50.3311)" fill="#2C6FEF"/>
<circle cx="550.846" cy="141.369" r="50" transform="rotate(-33.8219 550.846 141.369)" fill="#179E7E"/>
<circle cx="1890.07" cy="141.577" r="50" transform="rotate(-33.8219 1890.07 141.577)" fill="#179E7E"/>
<path d="M264.738 124.425C263.498 121.872 266.167 119.185 268.728 120.406L287.057 129.149C288.185 129.687 289.528 129.47 290.429 128.603L305.061 114.522C307.105 112.555 310.485 114.262 310.115 117.075L307.464 137.208C307.301 138.448 307.923 139.658 309.025 140.247L326.939 149.811C329.442 151.148 328.862 154.89 326.072 155.407L306.105 159.107C304.877 159.335 303.918 160.301 303.699 161.531L300.138 181.523C299.64 184.317 295.902 184.922 294.548 182.429L284.858 164.583C284.262 163.484 283.048 162.871 281.81 163.042L261.695 165.834C258.885 166.224 257.154 162.855 259.107 160.797L273.086 146.067C273.946 145.161 274.154 143.816 273.608 142.692L264.738 124.425Z" fill="#F25B47"/>
<path d="M1603.96 124.633C1602.72 122.08 1605.39 119.393 1607.95 120.615L1626.28 129.357C1627.41 129.895 1628.75 129.678 1629.65 128.811L1644.29 114.73C1646.33 112.763 1649.71 114.47 1649.34 117.283L1646.69 137.416C1646.53 138.656 1647.15 139.866 1648.25 140.455L1666.16 150.019C1668.67 151.356 1668.09 155.098 1665.3 155.615L1645.33 159.315C1644.1 159.543 1643.14 160.509 1642.92 161.739L1639.36 181.731C1638.87 184.525 1635.13 185.13 1633.77 182.637L1624.08 164.791C1623.49 163.692 1622.27 163.079 1621.04 163.25L1600.92 166.042C1598.11 166.432 1596.38 163.063 1598.33 161.005L1612.31 146.275C1613.17 145.369 1613.38 144.024 1612.83 142.9L1603.96 124.633Z" fill="#F25B47"/>
<circle cx="1296.3" cy="197.296" r="31.0588" transform="rotate(-60.6459 1296.3 197.296)" fill="#179E7E"/>
<path d="M83.9716 -6.45643L238.535 6.38249C239.686 6.47807 240.302 7.78351 239.643 8.73229L151.243 136.169C150.585 137.118 149.146 136.998 148.654 135.954L82.4907 -4.32169C81.9981 -5.36605 82.8208 -6.55202 83.9716 -6.45643Z" fill="#179E7E" stroke="black" stroke-width="3"/>
<path d="M1424.2 -60.0965L1576.35 -90.186C1577.48 -90.4101 1578.43 -89.3238 1578.06 -88.2308L1528.04 58.5789C1527.67 59.6719 1526.26 59.9519 1525.5 59.0829L1423.36 -57.6373C1422.6 -58.5062 1423.07 -59.8725 1424.2 -60.0965Z" fill="#179E7E" stroke="black" stroke-width="3"/>
<path d="M1474.84 74.068C1475.72 72.6635 1477.58 72.2302 1478.93 73.1917C1483.45 76.4133 1487.41 80.3693 1490.63 84.9019C1494.44 90.25 1497.16 96.2961 1498.64 102.695C1500.11 109.094 1500.31 115.72 1499.22 122.195C1498.13 128.671 1495.78 134.868 1492.29 140.434C1488.81 146 1484.26 150.826 1478.92 154.635C1473.57 158.444 1467.52 161.163 1461.12 162.635C1454.72 164.108 1448.1 164.306 1441.62 163.218C1436.14 162.296 1430.85 160.465 1425.97 157.808C1424.52 157.015 1424.1 155.155 1424.98 153.751L1449.91 113.909L1474.84 74.068Z" fill="#F2B135"/>
<path d="M-61.6439 271.119L32.2781 290.429C32.9146 290.56 33.3945 291.086 33.4667 291.732L44.1254 387.024C44.1976 387.67 43.8458 388.289 43.2539 388.557L-44.0807 428.141C-44.6726 428.409 -45.3699 428.266 -45.8079 427.786L-110.442 356.958C-110.88 356.478 -110.959 355.77 -110.638 355.205L-63.25 271.847C-62.9288 271.282 -62.2804 270.989 -61.6439 271.119Z" fill="#F25B47" stroke="black" stroke-width="3"/>
<path d="M1325.5 269.111L1419.42 288.421C1420.06 288.552 1420.54 289.078 1420.61 289.724L1431.27 385.016C1431.34 385.662 1430.99 386.281 1430.4 386.549L1343.06 426.133C1342.47 426.401 1341.78 426.258 1341.34 425.778L1276.7 354.95C1276.27 354.47 1276.19 353.762 1276.51 353.197L1323.9 269.839C1324.22 269.274 1324.87 268.98 1325.5 269.111Z" fill="#F25B47" stroke="black" stroke-width="3"/>
</g>
<g filter="url(#filter1_d_51_187)">
<path d="M1887.69 2580.13C1886.65 2579.77 1886.09 2578.63 1886.49 2577.6C1893.25 2559.76 1906.6 2545.16 1923.82 2536.84C1941.65 2528.23 1962.16 2527.06 1980.85 2533.57C1999.54 2540.09 2014.88 2553.77 2023.49 2571.59C2031.81 2588.82 2033.18 2608.55 2027.39 2626.73C2027.05 2627.78 2025.91 2628.33 2024.87 2627.97L2003.98 2620.68C2002.93 2620.32 2002.39 2619.18 2002.71 2618.12C2006.23 2606.5 2005.27 2593.94 1999.97 2582.95C1994.37 2571.37 1984.4 2562.48 1972.25 2558.24C1960.1 2554.01 1946.77 2554.77 1935.18 2560.36C1924.2 2565.67 1915.64 2574.9 1911.17 2586.2C1910.76 2587.23 1909.62 2587.78 1908.58 2587.42L1887.69 2580.13Z" fill="#179E7E"/>
<rect x="201.941" y="2666.11" width="108.252" height="267.457" rx="1.5" transform="rotate(-105 201.941 2666.11)" fill="#179E7E" stroke="black" stroke-width="3"/>
<rect x="1553.08" y="2714.62" width="108.252" height="267.457" rx="1.5" transform="rotate(-105 1553.08 2714.62)" fill="#179E7E" stroke="black" stroke-width="3"/>
<path d="M782.749 2603.7C781.355 2602.81 780.942 2600.95 781.919 2599.61C789.104 2589.76 799.666 2582.85 811.641 2580.23C824.597 2577.4 838.146 2579.84 849.307 2587C860.468 2594.16 868.328 2605.46 871.157 2618.42C873.772 2630.39 871.891 2642.87 865.936 2653.51C865.126 2654.95 863.262 2655.36 861.867 2654.46L822.308 2629.08L782.749 2603.7Z" fill="#F2B135"/>
<path d="M2126.84 2593.72C2125.9 2592.36 2126.22 2590.48 2127.63 2589.6C2140.92 2581.22 2156.9 2578.06 2172.45 2580.82C2188.98 2583.75 2203.67 2593.13 2213.29 2606.9C2222.9 2620.66 2226.66 2637.69 2223.72 2654.22C2220.97 2669.76 2212.51 2683.68 2200.06 2693.28C2198.75 2694.3 2196.88 2693.96 2195.93 2692.6L2161.39 2643.16L2126.84 2593.72Z" fill="#F2B135"/>
<path d="M689.836 2352.71L755.175 2375.28C756.947 2375.89 758.913 2375.34 760.109 2373.9L804.217 2320.67C805.122 2319.58 806.898 2320.24 806.872 2321.66L805.603 2390.77C805.569 2392.64 806.7 2394.34 808.442 2395.03L872.691 2420.54C874.01 2421.06 873.932 2422.95 872.575 2423.37L806.452 2443.52C804.659 2444.06 803.392 2445.66 803.273 2447.53L798.873 2516.52C798.783 2517.94 796.959 2518.45 796.147 2517.28L756.549 2460.62C755.475 2459.09 753.561 2458.38 751.745 2458.84L684.777 2475.97C683.402 2476.33 682.353 2474.75 683.208 2473.62L724.858 2418.45C725.988 2416.95 726.071 2414.91 725.068 2413.33L688.08 2354.93C687.32 2353.74 688.495 2352.25 689.836 2352.71Z" fill="#2C6FEF" stroke="black" stroke-width="3"/>
<path d="M2021.25 2342.29L2088.42 2358.64C2090.24 2359.09 2092.14 2358.35 2093.2 2356.81L2132.13 2299.69C2132.93 2298.51 2134.76 2299 2134.87 2300.42L2140.07 2369.35C2140.21 2371.22 2141.5 2372.8 2143.3 2373.33L2209.65 2392.71C2211.01 2393.1 2211.11 2394.99 2209.8 2395.53L2145.85 2421.78C2144.12 2422.5 2143.01 2424.21 2143.07 2426.08L2145.14 2495.18C2145.18 2496.59 2143.42 2497.27 2142.5 2496.19L2097.77 2443.49C2096.56 2442.06 2094.59 2441.53 2092.82 2442.16L2027.75 2465.49C2026.42 2465.97 2025.22 2464.49 2025.97 2463.29L2062.27 2404.46C2063.26 2402.87 2063.15 2400.83 2062 2399.35L2019.71 2344.67C2018.84 2343.55 2019.87 2341.96 2021.25 2342.29Z" fill="#2C6FEF" stroke="black" stroke-width="3"/>
<circle cx="1027.85" cy="2550.69" r="50" transform="rotate(1.65797 1027.85 2550.69)" fill="#179E7E"/>
<circle cx="2315.65" cy="2502.43" r="50" transform="rotate(1.65797 2315.65 2502.43)" fill="#179E7E"/>
<circle cx="714.436" cy="2173.44" r="50" transform="rotate(-71.2187 714.436 2173.44)" fill="#F25B47"/>
<circle cx="2094.7" cy="2135.47" r="68.9444" transform="rotate(-71.2187 2094.7 2135.47)" fill="#F25B47"/>
<circle cx="1448.18" cy="2419.95" r="50" transform="rotate(36.6084 1448.18 2419.95)" fill="#2C6FEF"/>
<path d="M1239.1 2600.1C1238.88 2602.93 1235.22 2603.9 1233.63 2601.55L1219.52 2580.79C1218.81 2579.76 1217.54 2579.27 1216.33 2579.56L1191.93 2585.47C1189.17 2586.13 1187.12 2582.96 1188.85 2580.71L1204.24 2560.88C1205.01 2559.89 1205.08 2558.53 1204.42 2557.47L1191.27 2536.09C1189.78 2533.67 1192.17 2530.73 1194.84 2531.69L1218.46 2540.19C1219.63 2540.62 1220.95 2540.27 1221.76 2539.31L1238.03 2520.2C1239.87 2518.04 1243.4 2519.4 1243.31 2522.23L1242.52 2547.33C1242.48 2548.57 1243.22 2549.72 1244.38 2550.19L1267.59 2559.76C1270.21 2560.84 1270.01 2564.62 1267.28 2565.41L1243.18 2572.42C1241.98 2572.76 1241.12 2573.82 1241.02 2575.07L1239.1 2600.1Z" fill="#179E7E"/>
<rect x="883.897" y="2262.46" width="77.5946" height="188.635" rx="3" transform="rotate(-76.4953 883.897 2262.46)" fill="#F2B135"/>
<rect x="2223.12" y="2262.66" width="77.5946" height="188.635" rx="3" transform="rotate(-76.4953 2223.12 2262.66)" fill="#F2B135"/>
<path d="M886.454 2040.24C887.743 2040.41 888.779 2041.39 889.019 2042.66L894.72 2072.93C894.961 2074.2 894.352 2075.49 893.211 2076.11L866.19 2090.89C865.05 2091.51 863.638 2091.33 862.692 2090.44L840.292 2069.31C839.346 2068.41 839.083 2067.01 839.639 2065.84L852.815 2038.01C853.371 2036.83 854.621 2036.15 855.91 2036.31L886.454 2040.24Z" fill="#F25B47"/>
<path d="M2323.86 2056.24C2325.15 2056.41 2326.18 2057.39 2326.42 2058.66L2332.13 2088.93C2332.37 2090.2 2331.76 2091.49 2330.62 2092.11L2303.6 2106.89C2302.46 2107.51 2301.04 2107.33 2300.1 2106.44L2277.7 2085.31C2276.75 2084.41 2276.49 2083.01 2277.04 2081.84L2290.22 2054C2290.78 2052.83 2292.03 2052.15 2293.31 2052.31L2323.86 2056.24Z" fill="#F25B47"/>
<path d="M1082.17 2405.8C1080.32 2403.65 1082.22 2400.37 1085 2400.9L1109.67 2405.56C1110.9 2405.79 1112.14 2405.24 1112.79 2404.17L1125.83 2382.72C1127.31 2380.3 1131.01 2381.08 1131.37 2383.9L1134.56 2408.8C1134.72 2410.04 1135.63 2411.05 1136.85 2411.34L1161.27 2417.11C1164.04 2417.76 1164.43 2421.53 1161.87 2422.74L1139.17 2433.47C1138.04 2434 1137.36 2435.18 1137.46 2436.43L1139.52 2461.45C1139.75 2464.28 1136.29 2465.82 1134.35 2463.75L1117.13 2445.48C1116.27 2444.57 1114.94 2444.29 1113.79 2444.77L1090.63 2454.46C1088.01 2455.55 1085.48 2452.74 1086.84 2450.25L1098.9 2428.23C1099.5 2427.14 1099.36 2425.78 1098.54 2424.83L1082.17 2405.8Z" fill="#F25B47"/>
<path d="M2449.81 2443.8C2447.96 2441.64 2449.86 2438.36 2452.64 2438.89L2477.31 2443.55C2478.54 2443.78 2479.78 2443.23 2480.43 2442.16L2493.47 2420.71C2494.95 2418.29 2498.65 2419.08 2499.01 2421.89L2502.2 2446.79C2502.36 2448.03 2503.27 2449.04 2504.49 2449.33L2528.92 2455.1C2531.68 2455.76 2532.07 2459.52 2529.51 2460.74L2506.81 2471.46C2505.68 2472 2505 2473.18 2505.1 2474.42L2507.16 2499.44C2507.39 2502.27 2503.93 2503.81 2501.99 2501.74L2484.77 2483.47C2483.92 2482.56 2482.58 2482.28 2481.43 2482.76L2458.27 2492.45C2455.66 2493.55 2453.12 2490.73 2454.48 2488.24L2466.54 2466.22C2467.14 2465.13 2467 2463.77 2466.18 2462.83L2449.81 2443.8Z" fill="#F25B47"/>
<rect x="221.678" y="1993.05" width="32.2535" height="486.745" rx="3" transform="rotate(-48.2258 221.678 1993.05)" fill="#179E7E"/>
<rect x="1599.23" y="1985.05" width="32.2535" height="486.745" rx="3" transform="rotate(-48.2258 1599.23 1985.05)" fill="#179E7E"/>
<path d="M-12.4154 2442.13C-12.864 2439.86 -10.6919 2437.96 -8.50573 2438.7L113.662 2480.29C115.848 2481.04 116.409 2483.87 114.671 2485.39L17.5711 2570.4C15.8335 2571.92 13.1007 2570.99 12.6521 2568.72L-12.4154 2442.13Z" fill="#F2B135"/>
<path d="M1610.81 2389.13C1610.36 2386.86 1612.53 2384.96 1614.72 2385.7L1736.89 2427.29C1739.07 2428.04 1739.63 2430.87 1737.9 2432.39L1640.8 2517.4C1639.06 2518.92 1636.33 2517.99 1635.88 2515.72L1610.81 2389.13Z" fill="#F2B135"/>
<circle cx="153.996" cy="2366" r="36.9284" transform="rotate(-16.73 153.996 2366)" fill="#F25B47"/>
<rect x="426.149" y="1978.06" width="58" height="141" rx="3" transform="rotate(-39.7086 426.149 1978.06)" fill="#F2B135"/>
<rect x="1842.23" y="2005.25" width="58" height="141" rx="3" transform="rotate(-28.023 1842.23 2005.25)" fill="#F2B135"/>
<path d="M1130.14 1852.29C1130.61 1851.07 1131.8 1850.3 1133.1 1850.36L1187.44 1853.19C1188.74 1853.25 1189.85 1854.15 1190.19 1855.41L1204.29 1907.96C1204.63 1909.22 1204.12 1910.55 1203.03 1911.26L1157.4 1940.92C1156.31 1941.62 1154.89 1941.55 1153.88 1940.73L1111.58 1906.5C1110.57 1905.69 1110.2 1904.31 1110.66 1903.1L1130.14 1852.29Z" fill="#F2B135"/>
<path d="M2468 1725.5C2468.46 1724.29 2469.66 1723.51 2470.96 1723.58L2525.3 1726.4C2526.6 1726.47 2527.71 1727.37 2528.04 1728.62L2542.15 1781.18C2542.49 1782.44 2541.98 1783.77 2540.89 1784.47L2495.26 1814.13C2494.17 1814.84 2492.75 1814.77 2491.74 1813.95L2449.43 1779.72C2448.42 1778.9 2448.05 1777.53 2448.52 1776.31L2468 1725.5Z" fill="#F2B135"/>
<rect x="616.931" y="1947.95" width="58" height="141" rx="3" transform="rotate(-79.0764 616.931 1947.95)" fill="#F25B47"/>
<rect x="1992.23" y="1956.95" width="58" height="141" rx="3" transform="rotate(-79.0764 1992.23 1956.95)" fill="#F25B47"/>
<path d="M1214.36 2083.07C1212.71 2081.45 1213.42 2078.66 1215.65 2078.03L1289.04 2057.51C1291.27 2056.89 1293.33 2058.91 1292.76 2061.15L1273.83 2134.97C1273.26 2137.21 1270.48 2137.99 1268.83 2136.37L1214.36 2083.07Z" fill="#2C6FEF"/>
<path d="M2465.36 2112.07C2463.71 2110.45 2464.42 2107.66 2466.65 2107.03L2540.04 2086.51C2542.27 2085.89 2544.33 2087.91 2543.76 2090.15L2524.83 2163.97C2524.26 2166.21 2521.48 2166.99 2519.83 2165.37L2465.36 2112.07Z" fill="#2C6FEF"/>
<rect x="1316.23" y="2189.29" width="58" height="141" rx="3" transform="rotate(-69.3994 1316.23 2189.29)" fill="#F2B135"/>
<rect x="1250.77" y="1668" width="15.0094" height="276.857" rx="3" transform="rotate(45 1250.77 1668)" fill="#F25B47"/>
<rect x="2295.5" y="1796.03" width="15.0094" height="331.011" rx="3" transform="rotate(-66.1429 2295.5 1796.03)" fill="#2C6FEF"/>
<path d="M924.021 1935.91C921.225 1936.4 919.381 1933.09 921.263 1930.97L937.913 1912.18C938.742 1911.24 938.905 1909.89 938.321 1908.79L926.593 1886.59C925.268 1884.08 927.844 1881.31 930.445 1882.44L953.457 1892.47C954.602 1892.97 955.937 1892.71 956.808 1891.81L974.293 1873.8C976.269 1871.76 979.706 1873.35 979.431 1876.18L977.003 1901.16C976.882 1902.41 977.545 1903.6 978.667 1904.15L1001.2 1915.21C1003.75 1916.46 1003.3 1920.22 1000.52 1920.83L976.012 1926.24C974.792 1926.51 973.866 1927.51 973.689 1928.75L970.131 1953.6C969.728 1956.41 966.013 1957.14 964.575 1954.69L951.853 1933.05C951.22 1931.97 949.985 1931.4 948.754 1931.62L924.021 1935.91Z" fill="#F2B135"/>
<path d="M2236.02 1935.91C2233.23 1936.4 2231.38 1933.09 2233.26 1930.97L2249.91 1912.18C2250.74 1911.24 2250.9 1909.89 2250.32 1908.79L2238.59 1886.59C2237.27 1884.08 2239.84 1881.31 2242.44 1882.44L2265.46 1892.47C2266.6 1892.97 2267.94 1892.71 2268.81 1891.81L2286.29 1873.8C2288.27 1871.76 2291.71 1873.35 2291.43 1876.18L2289 1901.16C2288.88 1902.41 2289.54 1903.6 2290.67 1904.15L2313.2 1915.21C2315.75 1916.46 2315.3 1920.22 2312.52 1920.83L2288.01 1926.24C2286.79 1926.51 2285.87 1927.51 2285.69 1928.75L2282.13 1953.6C2281.73 1956.41 2278.01 1957.14 2276.57 1954.69L2263.85 1933.05C2263.22 1931.97 2261.99 1931.4 2260.75 1931.62L2236.02 1935.91Z" fill="#F2B135"/>
<path d="M229.989 2077.91L279.515 2227.08C279.879 2228.18 278.92 2229.26 277.789 2229.02L123.842 2197.33C122.711 2197.1 122.256 2195.73 123.023 2194.86L227.445 2077.39C228.212 2076.53 229.626 2076.82 229.989 2077.91Z" fill="#2C6FEF" stroke="black" stroke-width="3"/>
<path d="M1628.21 2124.91L1677.74 2274.08C1678.1 2275.18 1677.15 2276.26 1676.01 2276.02L1522.07 2244.33C1520.94 2244.1 1520.48 2242.73 1521.25 2241.86L1625.67 2124.39C1626.44 2123.53 1627.85 2123.82 1628.21 2124.91Z" fill="#2C6FEF" stroke="black" stroke-width="3"/>
<rect x="1336.92" y="2409.38" width="77.5946" height="188.635" rx="3" transform="rotate(159.205 1336.92 2409.38)" fill="#F25B47"/>
<rect x="2676.15" y="2409.59" width="77.5946" height="188.635" rx="3" transform="rotate(159.205 2676.15 2409.59)" fill="#F25B47"/>
<path d="M1203.12 1599.97L1306.89 1504.57C1307.74 1503.79 1309.12 1504.22 1309.37 1505.35L1340.1 1642.92C1340.35 1644.05 1339.29 1645.02 1338.19 1644.68L1203.68 1602.51C1202.58 1602.16 1202.27 1600.75 1203.12 1599.97Z" fill="#F25B47" stroke="black" stroke-width="3"/>
<path d="M2537.2 1631.85L2640.98 1536.45C2641.83 1535.67 2643.2 1536.1 2643.45 1537.23L2674.19 1674.8C2674.44 1675.93 2673.37 1676.9 2672.27 1676.56L2537.77 1634.39C2536.67 1634.04 2536.35 1632.63 2537.2 1631.85Z" fill="#F25B47" stroke="black" stroke-width="3"/>
<path d="M61.0804 2004.21C59.799 2001.67 62.423 1998.94 65.0038 2000.12L87.8363 2010.56C88.973 2011.07 90.3126 2010.83 91.1987 2009.95L108.997 1992.25C111.009 1990.25 114.417 1991.9 114.093 1994.72L111.227 2019.66C111.084 2020.9 111.726 2022.1 112.838 2022.67L135.174 2034.13C137.699 2035.42 137.181 2039.17 134.4 2039.74L109.796 2044.72C108.571 2044.97 107.628 2045.95 107.429 2047.18L103.435 2071.96C102.984 2074.77 99.2558 2075.43 97.861 2072.96L85.5213 2051.1C84.907 2050.01 83.6824 2049.42 82.4475 2049.61L57.643 2053.47C54.8393 2053.91 53.0529 2050.57 54.9719 2048.48L71.9496 2029.99C72.7948 2029.07 72.9808 2027.72 72.4164 2026.6L61.0804 2004.21Z" fill="#179E7E"/>
<path d="M1400.31 2004.41C1399.02 2001.88 1401.65 1999.15 1404.23 2000.33L1427.06 2010.76C1428.2 2011.28 1429.54 2011.04 1430.42 2010.16L1448.22 1992.46C1450.23 1990.46 1453.64 1992.11 1453.32 1994.93L1450.45 2019.87C1450.31 2021.11 1450.95 2022.31 1452.06 2022.88L1474.4 2034.34C1476.92 2035.63 1476.41 2039.38 1473.63 2039.95L1449.02 2044.93C1447.8 2045.17 1446.85 2046.15 1446.65 2047.39L1442.66 2072.17C1442.21 2074.97 1438.48 2075.64 1437.09 2073.17L1424.75 2051.31C1424.13 2050.22 1422.91 2049.63 1421.67 2049.82L1396.87 2053.68C1394.06 2054.12 1392.28 2050.78 1394.2 2048.69L1411.18 2030.19C1412.02 2029.27 1412.21 2027.93 1411.64 2026.81L1400.31 2004.41Z" fill="#179E7E"/>
<path d="M677.743 1670.24L777.588 1627.21C778.185 1626.95 778.879 1627.11 779.309 1627.59L851.092 1709.25C851.521 1709.74 851.587 1710.45 851.255 1711.01L795.775 1804.51C795.444 1805.07 794.79 1805.35 794.156 1805.21L688.084 1781.34C687.45 1781.2 686.98 1780.66 686.92 1780.02L676.844 1671.76C676.783 1671.11 677.147 1670.5 677.743 1670.24Z" fill="#F2B135" stroke="black" stroke-width="3"/>
<path d="M2016.97 1670.45L2116.81 1627.42C2117.41 1627.16 2118.11 1627.31 2118.53 1627.8L2190.32 1709.46C2190.75 1709.95 2190.81 1710.66 2190.48 1711.22L2135 1804.72C2134.67 1805.28 2134.02 1805.56 2133.38 1805.42L2027.31 1781.55C2026.68 1781.41 2026.21 1780.87 2026.15 1780.22L2016.07 1671.97C2016.01 1671.32 2016.37 1670.71 2016.97 1670.45Z" fill="#F2B135" stroke="black" stroke-width="3"/>
<path d="M999.255 2050.19C998.629 2049.32 998.514 2048.18 998.954 2047.2L1018.06 2004.77C1018.5 2003.79 1019.43 2003.12 1020.49 2003.02L1066.8 1998.35C1067.86 1998.24 1068.91 1998.71 1069.53 1999.58L1096.73 2037.34C1097.35 2038.21 1097.47 2039.35 1097.03 2040.33L1077.92 2082.76C1077.48 2083.74 1076.55 2084.4 1075.49 2084.51L1029.18 2089.18C1028.12 2089.29 1027.08 2088.82 1026.45 2087.95L999.255 2050.19Z" fill="#179E7E"/>
<path d="M2386.34 1971.11C2385.71 1970.24 2385.6 1969.1 2386.04 1968.12L2405.15 1925.69C2405.59 1924.71 2406.51 1924.04 2407.58 1923.93L2453.88 1919.27C2454.95 1919.16 2455.99 1919.63 2456.62 1920.5L2483.81 1958.26C2484.44 1959.13 2484.55 1960.27 2484.11 1961.24L2465.01 2003.68C2464.57 2004.65 2463.64 2005.32 2462.57 2005.43L2416.27 2010.1C2415.2 2010.21 2414.16 2009.74 2413.54 2008.87L2386.34 1971.11Z" fill="#179E7E"/>
<path d="M627.161 1524.54C625.173 1523.37 625.201 1520.48 627.213 1519.35L696.843 1480.07C698.854 1478.94 701.339 1480.4 701.316 1482.71L700.516 1562.65C700.493 1564.96 697.979 1566.38 695.99 1565.21L627.161 1524.54Z" fill="#179E7E"/>
<path d="M1966.39 1524.75C1964.4 1523.58 1964.43 1520.69 1966.44 1519.55L2036.07 1480.28C2038.08 1479.14 2040.56 1480.61 2040.54 1482.92L2039.74 1562.86C2039.72 1565.17 2037.2 1566.59 2035.22 1565.41L1966.39 1524.75Z" fill="#179E7E"/>
<rect x="112.997" y="1798.89" width="91.4167" height="222.237" rx="3" transform="rotate(-56.1007 112.997 1798.89)" fill="#2C6FEF"/>
<rect x="1531.23" y="1815.88" width="91.4167" height="222.237" rx="3" transform="rotate(-56.1007 1531.23 1815.88)" fill="#2C6FEF"/>
<path d="M410.633 1756.89C410.79 1755.83 411.5 1754.93 412.497 1754.54L455.77 1737.42C456.766 1737.03 457.898 1737.19 458.737 1737.86L495.199 1766.77C496.039 1767.44 496.46 1768.5 496.303 1769.56L489.492 1815.6C489.335 1816.66 488.624 1817.56 487.628 1817.95L444.355 1835.07C443.358 1835.46 442.227 1835.3 441.387 1834.63L404.925 1805.71C404.086 1805.05 403.665 1803.98 403.822 1802.92L410.633 1756.89Z" fill="#F2B135"/>
<path d="M1810.04 1802.89C1810.2 1801.83 1810.91 1800.93 1811.9 1800.54L1855.18 1783.42C1856.17 1783.03 1857.31 1783.19 1858.15 1783.86L1894.61 1812.78C1895.45 1813.44 1895.87 1814.5 1895.71 1815.56L1888.9 1861.6C1888.74 1862.66 1888.03 1863.56 1887.04 1863.95L1843.76 1881.07C1842.77 1881.46 1841.63 1881.3 1840.79 1880.63L1804.33 1851.71C1803.49 1851.05 1803.07 1849.98 1803.23 1848.92L1810.04 1802.89Z" fill="#F2B135"/>
<path d="M828.868 1540.35C827.191 1538.76 827.863 1535.96 830.076 1535.3L922.162 1507.93C924.376 1507.28 926.472 1509.26 925.935 1511.51L903.589 1604.94C903.052 1607.18 900.285 1608.01 898.608 1606.42L828.868 1540.35Z" fill="#F25B47"/>
<path d="M2168.09 1540.56C2166.42 1538.97 2167.09 1536.16 2169.3 1535.5L2261.39 1508.14C2263.6 1507.48 2265.7 1509.47 2265.16 1511.71L2242.81 1605.15C2242.28 1607.39 2239.51 1608.21 2237.83 1606.63L2168.09 1540.56Z" fill="#F25B47"/>
<circle cx="1041.18" cy="1647.23" r="50" transform="rotate(163.748 1041.18 1647.23)" fill="#2C6FEF"/>
<circle cx="2395.41" cy="1629.44" r="50" transform="rotate(163.748 2395.41 1629.44)" fill="#2C6FEF"/>
<rect x="395.208" y="2404.52" width="58" height="141" rx="3" transform="rotate(-131.204 395.208 2404.52)" fill="#F2B135"/>
<rect x="1780.7" y="2291.89" width="58" height="141" rx="3" transform="rotate(-30.3367 1780.7 2291.89)" fill="#F2B135"/>
<rect x="322.083" y="1583.12" width="58" height="141" rx="3" transform="rotate(-85.642 322.083 1583.12)" fill="#2C6FEF"/>
<rect x="1727" y="1513.83" width="58" height="141" rx="3" transform="rotate(-85.642 1727 1513.83)" fill="#2C6FEF"/>
<circle cx="562.072" cy="1674.37" r="50" transform="rotate(-33.8219 562.072 1674.37)" fill="#179E7E"/>
<circle cx="1901.3" cy="1674.58" r="50" transform="rotate(-33.8219 1901.3 1674.58)" fill="#179E7E"/>
<path d="M275.963 1657.42C274.724 1654.87 277.393 1652.18 279.954 1653.41L298.282 1662.15C299.41 1662.69 300.754 1662.47 301.654 1661.6L316.286 1647.52C318.331 1645.55 321.711 1647.26 321.341 1650.08L318.69 1670.21C318.527 1671.45 319.149 1672.66 320.251 1673.25L338.164 1682.81C340.667 1684.15 340.088 1687.89 337.298 1688.41L317.331 1692.11C316.102 1692.34 315.143 1693.3 314.924 1694.53L311.363 1714.52C310.866 1717.32 307.127 1717.92 305.773 1715.43L296.084 1697.58C295.488 1696.48 294.273 1695.87 293.035 1696.04L272.921 1698.83C270.111 1699.22 268.379 1695.86 270.333 1693.8L284.311 1679.07C285.172 1678.16 285.38 1676.82 284.834 1675.69L275.963 1657.42Z" fill="#F25B47"/>
<path d="M1615.19 1657.63C1613.95 1655.08 1616.62 1652.39 1619.18 1653.61L1637.51 1662.36C1638.64 1662.9 1639.98 1662.68 1640.88 1661.81L1655.51 1647.73C1657.56 1645.76 1660.94 1647.47 1660.57 1650.28L1657.92 1670.42C1657.75 1671.66 1658.37 1672.87 1659.48 1673.45L1677.39 1683.02C1679.89 1684.36 1679.31 1688.1 1676.52 1688.62L1656.56 1692.32C1655.33 1692.54 1654.37 1693.51 1654.15 1694.74L1650.59 1714.73C1650.09 1717.52 1646.35 1718.13 1645 1715.64L1635.31 1697.79C1634.71 1696.69 1633.5 1696.08 1632.26 1696.25L1612.15 1699.04C1609.34 1699.43 1607.61 1696.06 1609.56 1694.01L1623.54 1679.28C1624.4 1678.37 1624.61 1677.02 1624.06 1675.9L1615.19 1657.63Z" fill="#F25B47"/>
<circle cx="1372.3" cy="1740.3" r="31.0588" transform="rotate(-60.6459 1372.3 1740.3)" fill="#179E7E"/>
<path d="M95.1971 1526.54L249.761 1539.38C250.911 1539.48 251.527 1540.78 250.869 1541.73L162.468 1669.17C161.81 1670.12 160.372 1670 159.879 1668.95L93.7163 1528.68C93.2237 1527.63 94.0464 1526.45 95.1971 1526.54Z" fill="#179E7E" stroke="black" stroke-width="3"/>
<path d="M1435.43 1472.9L1587.57 1442.81C1588.71 1442.59 1589.66 1443.68 1589.29 1444.77L1539.27 1591.58C1538.9 1592.67 1537.48 1592.95 1536.72 1592.08L1434.59 1475.36C1433.83 1474.49 1434.29 1473.13 1435.43 1472.9Z" fill="#179E7E" stroke="black" stroke-width="3"/>
<path d="M1486.07 1607.07C1486.95 1605.66 1488.8 1605.23 1490.15 1606.19C1494.67 1609.41 1498.63 1613.37 1501.86 1617.9C1505.67 1623.25 1508.39 1629.3 1509.86 1635.69C1511.33 1642.09 1511.53 1648.72 1510.44 1655.19C1509.36 1661.67 1507 1667.87 1503.52 1673.43C1500.04 1679 1495.49 1683.83 1490.14 1687.63C1484.79 1691.44 1478.75 1694.16 1472.35 1695.64C1465.95 1697.11 1459.32 1697.31 1452.85 1696.22C1447.36 1695.3 1442.07 1693.46 1437.2 1690.81C1435.74 1690.01 1435.32 1688.15 1436.2 1686.75L1461.13 1646.91L1486.07 1607.07Z" fill="#F2B135"/>
<path d="M-50.4183 1804.12L43.5037 1823.43C44.1402 1823.56 44.6201 1824.09 44.6923 1824.73L55.351 1920.02C55.4232 1920.67 55.0714 1921.29 54.4795 1921.56L-32.8551 1961.14C-33.447 1961.41 -34.1443 1961.27 -34.5823 1960.79L-99.2167 1889.96C-99.6547 1889.48 -99.7339 1888.77 -99.4127 1888.21L-52.0244 1804.85C-51.7032 1804.28 -51.0548 1803.99 -50.4183 1804.12Z" fill="#F25B47" stroke="black" stroke-width="3"/>
<path d="M1336.73 1802.11L1430.65 1821.42C1431.29 1821.55 1431.77 1822.08 1431.84 1822.72L1442.5 1918.02C1442.57 1918.66 1442.22 1919.28 1441.62 1919.55L1354.29 1959.13C1353.7 1959.4 1353 1959.26 1352.56 1958.78L1287.93 1887.95C1287.49 1887.47 1287.41 1886.76 1287.73 1886.2L1335.12 1802.84C1335.44 1802.27 1336.09 1801.98 1336.73 1802.11Z" fill="#F25B47" stroke="black" stroke-width="3"/>
</g>
</g>
<defs>
<filter id="filter0_d_51_187" x="-134.346" y="-116.968" width="2906.44" height="2450.27" filterUnits="userSpaceOnUse" color-interpolation-filters="sRGB">
<feFlood flood-opacity="0" result="BackgroundImageFix"/>
<feColorMatrix in="SourceAlpha" type="matrix" values="0 0 0 0 0 0 0 0 0 0 0 0 0 0 0 0 0 0 127 0" result="hardAlpha"/>
<feOffset dx="6" dy="6"/>
<feComposite in2="hardAlpha" operator="out"/>
<feColorMatrix type="matrix" values="0 0 0 0 0 0 0 0 0 0 0 0 0 0 0 0 0 0 1 0"/>
<feBlend mode="normal" in2="BackgroundImageFix" result="effect1_dropShadow_51_187"/>
<feBlend mode="normal" in="SourceGraphic" in2="effect1_dropShadow_51_187" result="shape"/>
</filter>
<filter id="filter1_d_51_187" x="-123.12" y="1441.28" width="2906.44" height="1628.62" filterUnits="userSpaceOnUse" color-interpolation-filters="sRGB">
<feFlood flood-opacity="0" result="BackgroundImageFix"/>
<feColorMatrix in="SourceAlpha" type="matrix" values="0 0 0 0 0 0 0 0 0 0 0 0 0 0 0 0 0 0 127 0" result="hardAlpha"/>
<feOffset dx="6" dy="6"/>
<feComposite in2="hardAlpha" operator="out"/>
<feColorMatrix type="matrix" values="0 0 0 0 0 0 0 0 0 0 0 0 0 0 0 0 0 0 1 0"/>
<feBlend mode="normal" in2="BackgroundImageFix" result="effect1_dropShadow_51_187"/>
<feBlend mode="normal" in="SourceGraphic" in2="effect1_dropShadow_51_187" result="shape"/>
</filter>
<clipPath id="clip0_51_187">
<rect width="2566" height="2566" fill="white"/>
</clipPath>
</defs>
</svg>
