<?xml version="1.0"?>

<!DOCTYPE svg PUBLIC '-//W3C//DTD SVG 1.0//EN' 'http://www.w3.org/TR/2001/REC-SVG-20010904/DTD/svg10.dtd'>

<svg fill-opacity="1" xmlns:xlink="http://www.w3.org/1999/xlink" color-rendering="auto" color-interpolation="auto" text-rendering="auto" stroke="black" stroke-linecap="square" stroke-miterlimit="10" shape-rendering="auto" stroke-opacity="1" fill="black" stroke-dasharray="none" font-weight="normal" stroke-width="1" xmlns="http://www.w3.org/2000/svg" font-family="&apos;Dialog&apos;" font-style="normal" stroke-linejoin="miter" font-size="12" stroke-dashoffset="0" image-rendering="auto">
  <!--Unicode Character 'COPYLEFT SYMBOL' (U+1F12F)-->
  <defs id="genericDefs" />
  <g>
    <g>
      <path d="M120.9375 374.0625 Q91.6875 374.0625 66.9375 360 Q42.1875 345.9375 28.125 321.1875 Q14.0625 296.4375 14.0625 267.1875 Q14.0625 237.9375 28.125 213.1875 Q42.1875 188.4375 66.9375 174.375 Q91.6875 160.3125 120.9375 160.3125 Q150.1875 160.3125 174.9375 174.375 Q199.6875 188.4375 213.75 213.1875 Q227.8125 237.9375 227.8125 267.1875 Q227.8125 296.4375 213.75 321.1875 Q199.6875 345.9375 174.9375 360 Q150.1875 374.0625 120.9375 374.0625 ZM120.9375 357.1875 Q142.3125 357.1875 165.0938 345.6562 Q187.875 334.125 199.4062 311.3438 Q210.9375 288.5625 210.9375 267.1875 Q210.9375 245.8125 199.4062 223.0312 Q187.875 200.25 165.0938 188.7188 Q142.3125 177.1875 120.9375 177.1875 Q99.5625 177.1875 76.7812 188.7188 Q54 200.25 42.4688 223.0312 Q30.9375 245.8125 30.9375 267.1875 Q30.9375 288.5625 42.4688 311.3438 Q54 334.125 76.7812 345.6562 Q99.5625 357.1875 120.9375 357.1875 ZM122.7656 331.3125 Q111.2344 331.3125 100.8281 327.2344 Q90.4219 323.1562 83.25 315.1406 Q76.0781 307.125 73.6875 297.7031 L79.4531 291.9375 Q89.5781 307.125 99.1406 311.9062 Q108.7031 316.6875 122.7656 316.6875 Q133.1719 316.6875 141.4688 311.625 Q149.7656 306.5625 154.2656 294.75 Q158.7656 282.9375 158.7656 267.1875 Q158.7656 251.1562 154.2656 240.0469 Q149.7656 228.9375 141.0469 223.3125 Q132.3281 217.6875 119.3906 217.6875 Q111.7969 217.9688 104.7656 221.0625 Q97.7344 224.1562 92.25 230.0625 Q86.7656 235.9688 84.5156 243.5625 L77.7656 243.5625 L77.7656 223.0312 L83.9531 204.75 L92.1094 212.9062 Q98.2969 207.5625 104.9062 205.3125 Q111.5156 203.0625 119.3906 203.0625 Q136.8281 203.0625 150.6094 209.8125 Q164.3906 216.5625 172.2656 231.4688 Q180.1406 246.375 180.1406 267.1875 Q180.1406 286.875 173.3906 300.375 Q166.6406 313.875 153.9844 322.5938 Q141.3281 331.3125 122.7656 331.3125 Z" stroke="none" />
    </g>
  </g>
</svg>
