<svg width="72" height="72" viewBox="0 0 72 72" fill="none" xmlns="http://www.w3.org/2000/svg">
<path d="M19.5 16V56" stroke="#252525"/>
<path d="M56 20L16 20" stroke="#252525"/>
<path d="M35.5 16V56" stroke="#252525"/>
<path d="M56 36L16 36" stroke="#252525"/>
<path d="M51.5 16V56" stroke="#252525"/>
<path d="M56 52L16 52" stroke="#252525"/>
<g filter="url(#filter0_d_75_2160)">
<mask id="path-7-inside-1_75_2160" fill="white">
<path d="M44 36C44 40.4183 40.4183 44 36 44C31.5817 44 28 40.4183 28 36C28 31.5817 31.5817 28 36 28C40.4183 28 44 31.5817 44 36Z"/>
</mask>
<path d="M44 36C44 40.4183 40.4183 44 36 44C31.5817 44 28 40.4183 28 36C28 31.5817 31.5817 28 36 28C40.4183 28 44 31.5817 44 36Z" fill="#F25B47"/>
<path d="M44 36C44 40.4183 40.4183 44 36 44C31.5817 44 28 40.4183 28 36C28 31.5817 31.5817 28 36 28C40.4183 28 44 31.5817 44 36Z" stroke="#252525" stroke-width="4" mask="url(#path-7-inside-1_75_2160)"/>
</g>
<defs>
<filter id="filter0_d_75_2160" x="26" y="28" width="18" height="18" filterUnits="userSpaceOnUse" color-interpolation-filters="sRGB">
<feFlood flood-opacity="0" result="BackgroundImageFix"/>
<feColorMatrix in="SourceAlpha" type="matrix" values="0 0 0 0 0 0 0 0 0 0 0 0 0 0 0 0 0 0 127 0" result="hardAlpha"/>
<feOffset dx="-2" dy="2"/>
<feComposite in2="hardAlpha" operator="out"/>
<feColorMatrix type="matrix" values="0 0 0 0 0.145098 0 0 0 0 0.145098 0 0 0 0 0.145098 0 0 0 1 0"/>
<feBlend mode="normal" in2="BackgroundImageFix" result="effect1_dropShadow_75_2160"/>
<feBlend mode="normal" in="SourceGraphic" in2="effect1_dropShadow_75_2160" result="shape"/>
</filter>
</defs>
</svg>
